# xmcd
#
# Track frame offsets:
#	151
#	9958
#	24108
#	41129
#	63513
#	79942
#	96146
#	113090
#	130121
#	149734
#	165588
#	182007
#	196452
#	211042
#
# Disc length: 3047 seconds
#
# Revision: 1
# Processed by: cddbd v1.5.1PL2 Copyright (c) Steve Scherf et al.
# Submitted via: audiograbber 1.83.01
#
DISCID=b70be50e
DTITLE=Janiva Magness - My Bad Luck Soul
DYEAR=1999
DGENRE=Blues
TTITLE0=My Bad Luck Soul
TTITLE1=Tears Of Joy
TTITLE2=What's The Matter With The Mill?
TTITLE3=Empty Bed Blues
TTITLE4=Take A Number
TTITLE5=She Never Gets A Minute Of Sleep
TTITLE6=The Mojo (Boogie)
TTITLE7=It's Love Baby (Twenty Four Hours A Day)
TTITLE8=I Wanna Know
TTITLE9=Happy Hour
TTITLE10=Baby, Baby, Every Night
TTITLE11=She's A Little Bit Much
TTITLE12=Billie's Blues
TTITLE13=Seven Long Days
EXTD=
EXTT0=
EXTT1=
EXTT2=
EXTT3=
EXTT4=
EXTT5=
EXTT6=
EXTT7=
EXTT8=
EXTT9=
EXTT10=
EXTT11=
EXTT12=
EXTT13=
PLAYORDER=
